# xmcd
#
# Track frame offsets:
#	150
#	25425
#	41025
#	52650
#	64500
#	77475
#	96525
#	110250
#	126825
#	139875
#	155700
#	170325
#	185850
#	202125
#	219225
#	234675
#	251250
#	267675
#
# Disc length: 3803 seconds
#
# Revision: 1
# Processed by: cddbd v1.5.2PL0 Copyright (c) Steve Scherf et al.
# Submitted via: audiograbber 1.83.01
#
DISCID=0a0ed912
DTITLE=Various Artist - RS503
DYEAR=1900
DGENRE=
TTITLE0=Bill Engvall - Here's Your Sign
TTITLE1=Brooks and Dunn - My Maria
TTITLE2=John Michael Montgomery - Sold
TTITLE3=Alan Jackson - Little Bitty
TTITLE4=Daryle Singletary - Too Much Fun
TTITLE5=Tracy Byrd - The Keeper of The Start
TTITLE6=Ricochet - Daddy's Money
TTITLE7=Paul Brandt - I Do
TTITLE8=Lonestar - No News
TTITLE9=Travis Tritt - Where Corn Don't Grow
TTITLE10=John Michael Montgomery - Cowboy Love
TTITLE11=Kenny Chesney - When I Close My Eyes
TTITLE12=Tracy Byrd - Don't Take Her She's All I Got
TTITLE13=Toby Keith - Does That Blue Moon Ever Shine On You
TTITLE14=John Berry - Change My Mind
TTITLE15=John Berry - She Taken A Shine
TTITLE16=Collin Raye - Love Remains
TTITLE17=Collin Raye - Not That Different
EXTD=Rising Star Karaoke CDG
EXTT0=
EXTT1=
EXTT2=
EXTT3=
EXTT4=
EXTT5=
EXTT6=
EXTT7=
EXTT8=
EXTT9=
EXTT10=
EXTT11=
EXTT12=
EXTT13=
EXTT14=
EXTT15=
EXTT16=
EXTT17=
PLAYORDER=
